<svg xmlns="http://www.w3.org/2000/svg" width="512" height="512" viewBox="0 0 512 512">
  <defs>
    <linearGradient id="bg" x1="0%" y1="0%" x2="100%" y2="100%">
      <stop offset="0%" style="stop-color:#2D5016"/>
      <stop offset="100%" style="stop-color:#4A7C28"/>
    </linearGradient>
  </defs>
  
  <!-- Background circle -->
  <circle cx="256" cy="256" r="256" fill="url(#bg)"/>
  
  <!-- Enso brush stroke - open circle representing the path -->
  <path d="M256 80
    C353 80, 432 159, 432 256
    C432 353, 353 432, 256 432
    C159 432, 80 353, 80 256
    C80 180, 130 116, 200 92"
    fill="none"
    stroke="#FAFAF8"
    stroke-width="18"
    stroke-linecap="round"
    opacity="0.95"/>
  
  <!-- Brush stroke gap texture - the opening at the top -->
  <path d="M200 92
    C218 86, 236 82, 256 80"
    fill="none"
    stroke="url(#bg)"
    stroke-width="22"
    stroke-linecap="round"/>
  
  <!-- Zen stones stack -->
  <ellipse cx="256" cy="340" rx="55" ry="18" fill="#FAFAF8" opacity="0.9"/>
  <ellipse cx="256" cy="310" rx="42" ry="14" fill="#FAFAF8" opacity="0.9"/>
  <ellipse cx="256" cy="285" rx="30" ry="11" fill="#FAFAF8" opacity="0.9"/>
  
  <!-- Shiba Inu silhouette -->
  <path d="M256 350
    C230 350, 210 335, 210 315
    C210 295, 225 275, 240 265
    L235 240
    C235 240, 245 220, 256 215
    C267 220, 277 240, 277 240
    L272 265
    C287 275, 302 295, 302 315
    C302 335, 282 350, 256 350Z"
    fill="#FAFAF8" opacity="0.95"/>
  
  <!-- Shiba ears -->
  <path d="M240 265 L230 240 L245 250Z" fill="#FAFAF8" opacity="0.95"/>
  <path d="M272 265 L282 240 L267 250Z" fill="#FAFAF8" opacity="0.95"/>
  
  <!-- Shiba tail (curled) -->
  <path d="M302 315
    C320 310, 335 295, 330 275
    C325 260, 310 255, 300 265
    C295 272, 298 285, 302 315"
    fill="#FAFAF8" opacity="0.95"/>
  
  <!-- Ginkgo leaf -->
  <path d="M256 120
    C240 100, 220 95, 210 105
    C200 115, 210 130, 225 128
    C235 126, 245 118, 256 120
    C267 118, 277 126, 287 128
    C302 130, 312 115, 302 105
    C292 95, 272 100, 256 120Z"
    fill="#FAFAF8" opacity="0.9"/>
  
  <!-- Ginkgo stem -->
  <path d="M256 120 L256 90" stroke="#FAFAF8" stroke-width="3" stroke-linecap="round" opacity="0.9"/>
  
  <!-- Path / road line through the center -->
  <line x1="256" y1="170" x2="256" y2="340" stroke="#FAFAF8" stroke-width="6" stroke-linecap="round" opacity="0.7"/>
  
  <!-- Path dots representing steps -->
  <circle cx="256" cy="190" r="4" fill="#FAFAF8" opacity="0.8"/>
  <circle cx="256" cy="210" r="4" fill="#FAFAF8" opacity="0.8"/>
  <circle cx="256" cy="230" r="4" fill="#FAFAF8" opacity="0.8"/>
  <circle cx="256" cy="250" r="4" fill="#FAFAF8" opacity="0.8"/>
  
  <!-- Kanji watermarks -->
  <text x="256" y="480" text-anchor="middle" font-family="serif" font-size="32" fill="#FAFAF8" opacity="0.15">道</text>
</svg>
