<?xml version="1.0" standalone="no"?>
<!DOCTYPE svg PUBLIC "-//W3C//DTD SVG 20010904//EN"
 "http://www.w3.org/TR/2001/REC-SVG-20010904/DTD/svg10.dtd">
<svg version="1.0" xmlns="http://www.w3.org/2000/svg"
 width="600.000000pt" height="449.000000pt" viewBox="0 0 600.000000 449.000000"
 preserveAspectRatio="xMidYMid meet">
<g transform="translate(0.000000,449.000000) scale(0.100000,-0.100000)"
fill="#000000" stroke="none">
<path d="M3100 4050 c-8 -5 -29 -7 -46 -4 -21 4 -34 1 -44 -12 -8 -9 -32 -27
-52 -40 -24 -15 -38 -32 -38 -45 0 -11 25 -45 56 -77 74 -76 97 -122 91 -181
-4 -43 -46 -161 -57 -161 -12 0 -38 106 -29 122 23 44 0 93 -65 134 -28 18
-29 18 -47 -5 -19 -23 -23 -65 -10 -111 5 -18 20 -29 51 -41 38 -14 48 -23 62
-60 12 -30 17 -66 16 -111 -2 -37 1 -69 6 -70 5 -2 19 35 30 82 28 114 62 178
115 215 42 29 46 30 162 30 96 0 122 3 129 15 11 16 3 94 -12 123 -5 9 -6 22
-3 27 3 5 -10 27 -30 48 -19 22 -35 44 -35 49 0 17 -36 43 -58 43 -23 0 -46
-19 -73 -60 -17 -25 -17 -24 -12 22 4 31 1 53 -7 63 -14 17 -77 20 -100 5z
m87 -27 c3 -9 2 -43 -3 -75 -6 -33 -7 -61 -2 -64 4 -3 24 20 44 50 20 31 45
58 56 62 21 6 48 -11 48 -31 0 -7 13 -26 29 -41 15 -16 31 -42 35 -59 23 -100
24 -111 13 -123 -7 -9 -22 -11 -41 -8 -17 3 -67 6 -112 8 -61 1 -81 5 -81 15
0 20 81 88 135 114 25 13 41 24 35 26 -19 7 -92 -35 -141 -80 l-46 -42 24 35
c13 19 49 61 79 93 30 31 50 57 44 57 -15 0 -108 -101 -142 -155 l-30 -47 6
69 c6 72 -3 183 -15 183 -4 0 -6 -51 -5 -112 1 -101 0 -107 -8 -53 -10 65 -36
152 -48 160 -5 2 0 -24 9 -58 10 -34 21 -87 25 -116 7 -54 29 -91 52 -91 7 0
13 -4 13 -8 0 -10 -50 -35 -57 -28 -2 2 -8 30 -13 62 -4 33 -13 72 -19 88 -13
34 -72 118 -79 112 -2 -3 5 -17 16 -33 25 -35 57 -100 67 -133 5 -18 -2 -13
-22 17 -16 24 -48 60 -71 81 -48 44 -51 57 -19 73 12 6 32 21 45 32 14 14 34
20 55 19 18 -1 39 3 47 8 24 16 70 12 77 -7z m-249 -275 c6 -6 12 -19 12 -30
0 -17 -3 -18 -15 -8 -8 7 -15 20 -16 29 0 10 -4 6 -10 -9 -6 -14 -8 -33 -5
-42 5 -21 -5 -23 -22 -6 -13 13 -16 47 -6 72 7 17 36 14 62 -6z m19 -83 c-7
-16 -37 -21 -37 -5 0 10 32 31 39 25 2 -2 1 -11 -2 -20z"/>
<path d="M3290 3821 c-55 -17 -114 -50 -106 -58 2 -3 19 3 38 13 18 10 65 28
103 40 39 13 59 23 45 23 -14 0 -50 -8 -80 -18z"/>
<path d="M3235 3765 c-30 -14 -29 -14 15 -7 25 4 66 7 93 7 26 0 47 3 47 8 0
13 -124 7 -155 -8z"/>
<path d="M2847 3528 c-26 -18 -49 -40 -52 -48 -4 -9 3 -6 17 7 13 12 43 33 68
47 25 14 38 26 30 26 -9 0 -37 -15 -63 -32z"/>
<path d="M3061 3518 c-6 -17 -11 -32 -11 -34 0 -1 13 -5 28 -9 60 -13 122
-106 122 -184 0 -78 -49 -159 -116 -192 -24 -11 -44 -22 -44 -23 0 -2 13 -3
30 -3 16 0 27 4 24 9 -3 4 -1 8 5 8 28 0 16 -20 -20 -34 -56 -23 -44 -30 15
-10 26 9 63 31 83 50 44 42 51 43 24 5 -18 -25 -95 -71 -145 -86 -10 -3 -16
-8 -13 -11 13 -14 113 31 155 69 59 55 84 107 90 189 11 149 -57 250 -190 282
-23 5 -27 2 -37 -26z m151 -63 c15 -22 29 -49 31 -60 1 -11 6 -25 10 -32 18
-28 18 -100 0 -157 -15 -50 -23 -61 -46 -67 -15 -4 -27 -3 -27 2 0 9 28 58 40
69 22 21 -3 180 -33 212 -45 50 -60 68 -55 68 3 0 17 -11 33 -26 15 -14 30
-22 34 -19 3 4 -14 25 -39 48 -42 38 -43 40 -10 21 19 -11 47 -38 62 -59z
m-97 37 c-3 -3 -11 0 -18 7 -9 10 -8 11 6 5 10 -3 15 -9 12 -12z m37 -394
c-12 -12 -25 -17 -32 -13 -9 6 -6 13 11 26 30 23 47 13 21 -13z"/>
<path d="M2900 3522 c-44 -21 -122 -100 -113 -114 3 -7 1 -8 -5 -4 -7 4 -14
-4 -18 -21 -3 -15 -7 -34 -9 -40 -3 -7 1 -12 8 -10 7 1 12 -11 13 -28 4 -61
24 -149 39 -165 14 -15 47 -32 123 -61 12 -5 22 -16 22 -25 0 -13 -7 -16 -35
-11 -55 9 -100 42 -141 104 -32 48 -37 65 -41 127 -3 47 1 87 10 114 19 55 5
63 -19 11 -26 -60 -25 -160 4 -224 57 -124 204 -207 249 -139 12 18 11 24 -8
47 -11 15 -30 27 -42 27 -37 0 -102 38 -121 72 l-18 33 29 -33 c15 -18 32 -32
37 -32 5 0 0 10 -12 23 -28 30 -52 100 -51 151 0 31 2 36 8 21 7 -17 9 -16 16
13 9 43 60 101 105 120 19 8 29 17 23 19 -18 6 -78 -32 -109 -70 -14 -18 -21
-23 -16 -12 6 11 19 29 31 39 11 10 18 23 15 28 -3 4 -2 8 3 6 8 -2 83 41 83
48 0 9 -27 3 -60 -14z"/>
<path d="M2880 2965 c-62 -17 -103 -44 -108 -69 -5 -25 26 -55 64 -62 48 -9
52 -24 7 -25 -53 0 -103 -20 -120 -46 -14 -20 -13 -24 10 -47 14 -14 38 -28
54 -31 59 -14 55 -19 -21 -26 -106 -11 -170 -42 -174 -85 -2 -24 3 -36 23 -52
38 -30 129 -62 175 -62 22 0 40 -4 40 -10 0 -5 -18 -10 -40 -10 -52 0 -156
-35 -197 -66 -80 -61 -4 -127 170 -148 90 -11 41 14 -88 44 -60 14 -101 46
-83 67 9 11 15 10 32 -6 16 -15 37 -21 76 -22 67 -2 171 8 202 20 13 5 25 8
28 8 18 -1 81 27 96 44 18 20 18 21 -4 39 -18 15 -37 18 -102 15 -64 -2 -80 0
-80 11 0 16 -13 22 -115 54 -76 24 -105 44 -105 70 0 22 26 34 34 15 3 -8 22
-19 44 -24 41 -11 215 -17 230 -7 4 3 20 7 35 10 29 5 57 28 57 45 0 20 -46
40 -103 44 -44 3 -61 9 -73 25 -8 11 -24 22 -37 24 -12 2 -21 9 -20 15 2 7 -3
10 -11 7 -7 -3 -18 2 -25 10 -10 12 -7 17 18 30 40 21 54 20 76 -4 10 -11 26
-20 37 -20 10 0 18 -3 18 -7 0 -5 54 -8 119 -8 103 1 123 3 140 19 24 22 41
14 25 -11 -10 -17 -41 -29 -99 -40 -41 -7 -67 -22 -62 -36 4 -12 23 -24 92
-53 56 -23 63 -31 57 -59 -4 -24 -53 -61 -64 -49 -6 6 -75 -23 -82 -34 -7 -12
98 5 139 22 26 11 34 22 39 51 5 24 3 42 -5 51 -19 23 -82 53 -128 60 -58 9
-51 24 12 24 66 0 141 34 145 68 3 18 -6 27 -50 47 -29 14 -64 25 -78 26 -14
0 -34 4 -45 9 -18 8 -17 9 6 9 14 1 41 11 60 24 47 31 47 73 1 100 -44 26
-169 32 -242 12z m222 -30 c27 -11 33 -44 11 -60 -10 -8 -26 -15 -35 -15 -9 0
-25 -11 -36 -25 -18 -23 -27 -25 -77 -24 -47 2 -68 9 -111 37 -30 19 -54 39
-54 44 0 17 31 20 49 4 10 -9 31 -16 47 -16 36 0 94 34 94 56 0 13 9 15 48 11
26 -3 55 -8 64 -12z m-132 -4 c0 -14 -27 -21 -78 -21 -72 0 -31 26 46 29 17 0
32 -3 32 -8z m80 -152 c47 -5 90 -15 95 -21 7 -7 -33 -8 -135 -3 -151 7 -193
16 -125 26 63 10 76 10 165 -2z m-57 -168 c26 -26 -191 -47 -288 -27 -48 10
-33 21 47 35 63 12 227 6 241 -8z m27 -209 c0 -14 -131 -51 -220 -62 -53 -6
-102 -7 -130 -2 l-45 9 40 18 c22 10 72 23 110 30 79 15 245 19 245 7z"/>
<path d="M3475 2873 c-14 -31 -24 -57 -23 -59 2 -1 25 0 51 3 l49 6 -7 36 c-8
43 -22 71 -35 71 -6 0 -22 -25 -35 -57z m32 -15 c-3 -8 -6 -5 -6 6 -1 11 2 17
5 13 3 -3 4 -12 1 -19z"/>
<path d="M3321 2893 c-20 -38 -41 -129 -41 -177 0 -28 -11 -86 -25 -128 -13
-42 -32 -119 -41 -170 -9 -51 -23 -105 -30 -120 -20 -39 -235 -253 -334 -332
l-84 -68 -56 7 c-30 3 -67 8 -82 11 -23 5 -28 2 -28 -13 0 -29 29 -64 66 -79
113 -47 358 33 504 165 54 49 41 53 -24 9 -164 -112 -268 -156 -389 -163 -47
-2 -107 20 -114 42 -4 10 52 9 101 -2 17 -4 65 24 136 80 53 42 312 301 325
325 12 24 36 118 55 220 4 25 17 72 29 105 11 33 19 77 18 98 -3 44 11 50 19
8 7 -35 35 -64 55 -56 13 5 45 51 61 88 4 9 13 17 20 18 7 0 32 2 56 5 23 3
42 4 42 2 0 -1 -7 -21 -14 -43 -9 -24 -11 -46 -6 -56 6 -11 3 -20 -12 -30
-100 -69 -119 -160 -57 -276 17 -32 37 -65 44 -73 50 -59 76 -167 70 -296 -4
-87 -4 -88 11 -55 20 44 20 180 1 244 -9 26 -36 81 -61 121 -25 41 -53 90 -61
110 -31 74 -13 146 47 187 18 12 43 33 56 46 14 14 34 23 54 23 30 0 31 0 13
20 -24 26 -49 25 -68 -2 -13 -19 -16 -20 -16 -6 -1 9 3 28 9 42 13 36 48 34
96 -5 36 -28 43 -30 90 -24 39 5 54 3 64 -9 7 -9 21 -16 31 -16 24 0 24 -11
-2 -44 -29 -37 -71 -56 -124 -56 -52 0 -64 -24 -16 -33 36 -8 82 5 121 33 16
12 30 17 30 12 0 -10 -51 -57 -114 -105 -58 -45 -72 -85 -80 -225 -7 -127 -23
-224 -50 -301 -9 -24 -13 -47 -11 -52 11 -17 -62 -131 -129 -203 -50 -53 -92
-172 -155 -438 -12 -48 -21 -96 -21 -106 0 -26 31 -52 63 -52 24 0 57 -22 57
-39 0 -9 -138 -7 -166 2 -26 9 -33 41 -28 122 12 195 14 358 3 371 -13 16 -69
19 -69 4 0 -5 -7 -7 -15 -4 -10 4 -14 20 -13 51 1 45 -20 82 -40 69 -6 -3 -15
-29 -21 -56 -15 -70 -45 -124 -99 -182 -37 -39 -109 -87 -142 -93 -3 0 -52
-16 -110 -34 -95 -29 -110 -38 -152 -82 -77 -80 -77 -128 1 -134 44 -4 71 -18
57 -32 -9 -9 -174 -10 -198 -1 -13 6 -15 12 -8 35 5 15 19 68 32 116 17 72 27
92 47 105 77 48 122 130 117 212 -3 57 10 137 25 155 4 6 4 17 -1 24 -6 10
-41 14 -136 16 -131 2 -146 5 -233 54 -23 13 -23 15 -7 26 21 16 11 42 -29 73
-49 39 -81 137 -76 236 1 24 3 27 16 16 12 -10 18 -10 30 0 8 7 15 18 15 24 0
52 91 155 156 176 63 21 67 11 23 -57 -21 -35 -39 -65 -38 -68 0 -3 -5 -30
-11 -61 -30 -145 68 -296 231 -356 106 -39 166 -47 241 -33 125 24 279 105
356 189 65 70 50 75 -24 8 -115 -106 -318 -191 -424 -178 -67 9 -185 52 -234
85 -47 33 -96 103 -116 165 -30 93 13 229 95 305 l45 41 -63 0 c-69 0 -122
-20 -175 -65 -38 -32 -82 -112 -82 -150 0 -16 -4 -24 -11 -20 -10 7 -6 60 7
108 3 9 1 17 -4 17 -5 0 -22 -27 -37 -61 -23 -53 -27 -71 -23 -138 4 -91 33
-157 92 -207 47 -40 27 -45 -27 -8 -21 14 -41 23 -44 21 -3 -3 16 -28 41 -55
83 -88 233 -137 358 -115 35 6 64 10 65 9 1 -1 -4 -20 -12 -41 -8 -22 -14 -74
-15 -115 -1 -91 -23 -146 -75 -186 -21 -16 -45 -36 -54 -44 -14 -13 -48 -132
-77 -267 -4 -23 -4 -23 136 -23 140 0 140 0 140 23 0 48 -59 84 -109 65 -13
-4 -25 -7 -27 -5 -2 2 11 28 29 57 38 65 76 88 190 120 45 12 107 34 137 48
109 51 208 184 213 285 1 26 5 47 10 47 10 0 9 -104 -3 -134 -5 -14 -8 -26 -6
-26 1 0 29 9 60 20 l58 20 -7 -215 c-6 -162 -5 -226 5 -260 l13 -45 113 0 114
0 0 30 c0 38 -50 74 -92 66 -16 -3 -28 0 -31 8 -11 27 92 417 128 487 8 14 41
59 75 100 117 143 166 282 176 503 8 164 20 193 107 257 72 53 87 86 87 186 0
81 -7 86 -104 69 -75 -13 -78 -13 -104 9 -54 45 -92 58 -151 52 -31 -3 -63 -8
-73 -12 -12 -5 -25 6 -49 41 -57 84 -80 99 -98 67z m69 -94 l31 -51 -28 -41
-28 -40 -12 39 c-16 56 -15 144 2 144 2 0 17 -23 35 -51z m480 -99 c0 -5 -7
-7 -15 -4 -8 4 -12 10 -9 15 6 11 24 2 24 -11z"/>
<path d="M3042 2442 c-17 -11 6 -22 47 -22 42 0 60 -19 54 -59 -4 -25 -27 -55
-89 -118 -46 -47 -84 -87 -84 -89 0 -12 -173 -158 -213 -180 -11 -6 -40 -8
-72 -3 -172 23 -251 90 -171 143 22 14 24 14 19 -4 -7 -28 17 -34 90 -21 34 6
80 13 102 16 22 3 58 9 80 12 47 6 108 34 107 48 -1 13 -17 20 -75 34 -68 16
-113 14 -202 -9 -87 -22 -159 -60 -176 -91 -38 -72 86 -149 258 -160 36 -3 49
3 103 45 34 27 103 87 152 135 76 72 87 86 71 92 -15 6 -14 8 7 8 50 2 128
121 130 198 0 20 -115 41 -138 25z m-144 -277 c-5 -5 -173 -35 -328 -60 -35
-5 -35 -5 10 16 24 12 76 27 115 34 71 13 213 20 203 10z"/>
<path d="M3575 1728 c-83 -113 -95 -131 -95 -142 0 -7 41 -41 90 -75 50 -34
90 -66 90 -70 0 -4 -12 -18 -26 -32 -32 -30 -64 -90 -64 -121 0 -31 27 -68 49
-68 31 0 66 36 120 125 72 117 70 130 -40 297 -46 70 -86 127 -89 127 -3 0
-18 -18 -35 -41z m45 -16 c0 -5 20 -35 44 -68 24 -32 42 -62 40 -66 -3 -5 -1
-8 4 -8 5 0 21 -22 36 -49 19 -35 25 -58 20 -75 -3 -15 -10 -26 -14 -26 -4 0
-11 -11 -14 -24 -9 -35 -93 -146 -111 -146 -40 0 -22 92 27 138 45 43 38 70
-35 123 -34 25 -72 51 -84 58 -30 16 -29 26 10 74 57 74 77 91 77 69z"/>
<path d="M3123 1486 c-31 -8 -51 -23 -77 -57 -39 -49 -95 -93 -163 -128 -40
-20 -42 -23 -36 -54 6 -32 54 -82 171 -179 43 -35 51 -38 110 -38 57 0 63 2
57 18 -5 9 -10 32 -13 50 -3 21 -9 32 -17 28 -11 -4 -66 47 -120 112 l-19 23
50 43 c49 43 95 115 108 169 3 15 3 26 -1 26 -5 -1 -27 -7 -50 -13z m-4 -78
c-25 -36 -38 -51 -87 -101 -45 -45 -38 -66 49 -157 38 -40 69 -76 69 -80 0 -4
-16 -10 -36 -12 -42 -5 -49 -1 -201 138 -52 48 -51 67 6 93 29 14 75 51 112
90 35 36 70 69 79 72 28 12 33 -9 9 -43z"/>
<path d="M3666 921 c-3 -5 1 -14 9 -21 25 -20 17 -29 -20 -23 -28 4 -35 2 -35
-11 0 -13 11 -16 59 -16 54 0 59 -2 54 -20 -4 -16 -14 -20 -44 -20 l-39 0 0
-100 0 -100 105 0 105 0 0 100 0 100 -51 0 c-43 0 -50 3 -45 16 3 9 6 18 6 20
0 2 29 4 65 4 53 0 65 3 65 16 0 13 -8 15 -40 12 -38 -3 -51 4 -30 17 16 10
12 35 -5 35 -9 0 -21 -11 -27 -25 -7 -16 -19 -25 -34 -25 -12 0 -30 -3 -39 -6
-9 -4 -15 -3 -13 2 8 32 -31 70 -46 45z m164 -153 c0 -16 -10 -18 -75 -18 -68
0 -75 2 -75 20 0 18 6 19 75 17 64 -2 75 -5 75 -19z m0 -58 c0 -18 -7 -20 -75
-20 -68 0 -75 2 -75 20 0 18 7 20 75 20 68 0 75 -2 75 -20z m0 -60 c0 -18 -7
-20 -75 -20 -68 0 -75 2 -75 20 0 18 7 20 75 20 68 0 75 -2 75 -20z"/>
<path d="M3521 911 c-9 -6 -1 -19 25 -45 23 -23 41 -33 46 -28 19 19 -47 87
-71 73z"/>
<path d="M2574 895 c-4 -9 -2 -21 4 -27 15 -15 44 -1 40 19 -4 23 -36 29 -44
8z"/>
<path d="M2970 735 c0 -168 1 -175 20 -175 18 0 20 7 20 85 0 78 2 88 25 110
15 16 36 25 55 25 19 0 40 -9 55 -25 23 -22 25 -32 25 -110 0 -74 2 -85 18
-85 15 0 17 10 14 97 -3 94 -4 99 -33 126 -20 18 -40 27 -64 27 -37 0 -85 -18
-85 -32 0 -4 -4 -8 -8 -8 -4 0 -6 32 -4 70 4 66 3 70 -17 70 -21 0 -21 -4 -21
-175z"/>
<path d="M3286 901 c-10 -16 5 -41 24 -41 19 0 34 25 24 41 -3 5 -14 9 -24 9
-10 0 -21 -4 -24 -9z"/>
<path d="M2125 725 c0 -158 1 -165 20 -165 19 0 20 6 17 132 -2 151 -7 151 77
3 30 -52 60 -95 65 -95 12 0 126 191 126 209 0 6 3 11 8 11 4 0 5 -58 3 -130
-3 -127 -2 -130 18 -130 20 0 21 4 21 165 0 212 -7 215 -104 45 -38 -66 -71
-118 -75 -115 -3 3 -35 56 -71 118 -44 75 -72 113 -85 115 -19 3 -20 -4 -20
-163z"/>
<path d="M2580 685 c0 -112 2 -125 18 -125 15 0 17 13 17 125 0 112 -2 125
-17 125 -16 0 -18 -13 -18 -125z"/>
<path d="M2739 787 c-87 -58 -78 -176 17 -218 53 -24 102 -18 135 17 20 22 21
24 4 30 -9 4 -20 2 -24 -4 -12 -19 -55 -29 -88 -20 -42 11 -63 43 -63 94 0 35
5 47 31 68 36 31 77 33 110 7 24 -18 49 -18 49 0 0 17 -65 49 -101 49 -21 0
-50 -10 -70 -23z"/>
<path d="M3290 685 c0 -118 1 -125 20 -125 19 0 20 7 20 125 0 118 -1 125 -20
125 -19 0 -20 -7 -20 -125z"/>
<path d="M3500 745 c0 -10 10 -15 33 -15 l32 0 -3 -60 c-3 -54 -7 -62 -33 -77
-16 -10 -29 -23 -29 -30 0 -25 22 -24 49 1 l27 26 48 -25 c44 -22 62 -25 157
-25 94 0 110 2 118 18 9 16 1 18 -119 17 -114 0 -131 2 -156 20 -26 20 -27 25
-25 93 l2 72 -50 0 c-39 0 -51 -4 -51 -15z"/>
<path d="M2740 465 c-5 -10 -5 -89 0 -110 2 -5 5 6 9 25 9 50 41 55 41 6 0
-20 5 -36 10 -36 6 0 10 16 10 35 0 35 -22 57 -47 48 -6 -2 -13 6 -15 19 -2
13 -5 19 -8 13z"/>
<path d="M3180 460 c0 -5 5 -10 11 -10 5 0 7 5 4 10 -3 6 -8 10 -11 10 -2 0
-4 -4 -4 -10z"/>
<path d="M3375 460 c-3 -5 -3 -15 1 -22 5 -7 1 -9 -13 -6 -29 8 -53 -9 -53
-36 0 -30 18 -45 52 -43 27 2 28 4 28 60 0 57 -3 66 -15 47z m-5 -65 c0 -18
-5 -25 -19 -25 -11 0 -23 5 -26 10 -11 18 3 40 25 40 15 0 20 -7 20 -25z"/>
<path d="M3418 451 c-15 -21 -12 -101 3 -101 5 0 9 15 9 34 0 19 6 37 13 39
10 4 10 6 0 6 -19 1 -16 21 3 21 8 0 12 5 9 10 -9 15 -22 12 -37 -9z"/>
<path d="M3557 463 c-11 -10 -8 -101 3 -108 6 -4 10 17 10 54 0 62 -1 66 -13
54z"/>
<path d="M2130 455 c0 -6 5 -16 11 -22 6 -6 17 -28 24 -49 10 -27 14 -32 15
-17 0 12 9 38 21 57 12 20 17 36 12 36 -6 0 -15 -12 -22 -27 l-12 -27 -24 30
c-13 16 -24 24 -25 19z"/>
<path d="M2500 404 c0 -32 4 -53 10 -49 5 3 7 12 4 20 -4 10 4 15 28 17 58 5
46 68 -13 68 -28 0 -29 -1 -29 -56z m55 33 c23 -17 12 -37 -21 -37 -17 0 -24
6 -24 18 0 33 16 40 45 19z"/>
<path d="M3050 405 c0 -36 4 -54 10 -50 6 4 8 22 4 43 l-6 37 22 -35 c21 -32
23 -33 36 -15 8 10 14 24 14 29 0 6 -7 3 -15 -7 -13 -18 -14 -17 -29 11 -26
51 -36 48 -36 -13z"/>
<path d="M3138 448 c-7 -21 3 -98 13 -98 5 0 9 25 9 55 0 51 -12 73 -22 43z"/>
<path d="M2678 438 c-9 -27 7 -83 25 -86 9 -2 17 1 17 7 0 6 -4 11 -9 11 -5 0
-11 11 -13 25 -4 17 -1 25 9 25 12 0 12 2 -1 15 -18 18 -23 19 -28 3z"/>
<path d="M2868 437 c-9 -26 7 -82 25 -85 9 -2 17 1 17 7 0 6 -7 11 -15 11 -22
0 -20 48 3 52 15 3 14 5 -5 16 -16 9 -22 9 -25 -1z"/>
<path d="M2230 420 c-17 -17 -18 -24 -10 -41 17 -31 41 -35 61 -10 34 42 -14
88 -51 51z m48 -23 c4 -20 -25 -34 -40 -19 -15 15 -1 44 19 40 10 -2 19 -11
21 -21z"/>
<path d="M2310 407 c0 -38 12 -52 48 -52 20 -1 22 4 21 45 -2 44 -2 44 -8 10
-4 -26 -11 -35 -26 -35 -15 0 -20 7 -20 27 -1 15 -4 30 -8 34 -4 4 -7 -9 -7
-29z"/>
<path d="M2418 433 c-20 -5 -26 -67 -8 -78 6 -4 10 8 10 29 0 25 4 36 15 36 8
0 15 5 15 10 0 10 -3 11 -32 3z"/>
<path d="M2600 430 c-12 -8 -9 -10 13 -10 32 0 36 -17 5 -22 -26 -3 -36 -33
-14 -41 8 -3 24 -3 35 0 28 7 29 58 2 73 -24 12 -22 12 -41 0z m40 -50 c0 -5
-7 -10 -15 -10 -8 0 -15 5 -15 10 0 6 7 10 15 10 8 0 15 -4 15 -10z"/>
<path d="M2938 429 c-22 -13 -23 -52 -2 -70 17 -14 40 -5 58 24 8 12 5 21 -8
36 -22 24 -24 24 -48 10z m40 -32 c4 -20 -25 -34 -40 -19 -15 15 -1 44 19 40
10 -2 19 -11 21 -21z"/>
<path d="M3238 433 c-13 -3 -18 -15 -18 -44 0 -24 4 -38 10 -34 6 3 10 20 10
36 0 45 33 35 41 -11 l6 -35 2 36 c1 31 -14 61 -28 58 -4 -1 -14 -3 -23 -6z"/>
<path d="M3518 408 c-4 -45 -40 -47 -49 -3 l-7 30 -1 -32 c-1 -34 11 -48 47
-48 19 -1 22 4 22 42 0 51 -7 57 -12 11z"/>
<path d="M3608 433 c-13 -3 -18 -15 -18 -44 0 -21 5 -39 10 -39 6 0 10 16 10
35 0 28 4 35 20 35 16 0 20 -7 20 -36 0 -20 4 -33 10 -29 19 12 -8 88 -30 84
-3 -1 -13 -3 -22 -6z"/>
<path d="M3696 425 c-20 -21 -20 -39 0 -60 18 -17 45 -17 51 1 2 7 -5 10 -20
7 -14 -3 -28 0 -31 6 -5 7 6 11 30 11 35 0 36 1 22 22 -19 29 -32 32 -52 13z
m44 -15 c0 -5 -9 -10 -20 -10 -11 0 -20 5 -20 10 0 6 9 10 20 10 11 0 20 -4
20 -10z"/>
<path d="M3781 431 c-17 -11 -7 -41 14 -41 27 0 16 -20 -12 -21 -28 0 -28 0
-5 -11 18 -9 26 -8 39 4 18 19 10 38 -18 38 -10 0 -19 5 -19 10 0 6 9 10 21
10 11 0 17 5 14 10 -8 12 -16 12 -34 1z"/>
<path d="M3853 433 c-21 -8 -15 -43 7 -43 27 0 25 -18 -2 -23 -21 -3 -21 -4
-5 -12 12 -5 24 -3 34 8 18 18 9 37 -18 37 -10 0 -19 5 -19 10 0 6 12 10 28
10 21 0 24 2 12 10 -16 11 -19 11 -37 3z"/>
<path d="M3180 390 c0 -22 5 -40 10 -40 6 0 10 18 10 40 0 22 -4 40 -10 40 -5
0 -10 -18 -10 -40z"/>
</g>
</svg>
